<svg width="154" height="25" viewBox="0 0 154 25" fill="none" xmlns="http://www.w3.org/2000/svg">
<path d="M7.96378 8.70417C7.96378 8.37448 7.8519 8.09039 7.62767 7.85096C7.40344 7.61248 7.12566 7.49229 6.79386 7.49229C5.74872 7.49229 4.66199 8.60536 3.53367 10.831C2.48901 12.8424 1.96596 14.441 1.96596 15.6277C1.96596 16.6999 2.33076 17.2353 3.06082 17.2353C4.08922 17.2353 5.1181 16.1963 6.1465 14.1194C6.84358 12.7018 7.39149 11.2015 7.78927 9.61914C7.90497 9.15738 7.96378 8.85239 7.96378 8.70417ZM10.9749 14.9355V14.9854C10.9586 15.0182 10.95 15.0429 10.95 15.059C10.602 15.8999 10.1454 16.6168 9.5812 17.2106C8.86787 17.9365 8.12107 18.2985 7.34129 18.2985C6.44532 18.2985 5.99781 17.7631 5.99781 16.6913C5.99781 16.4115 6.0222 16.1388 6.07192 15.8752C4.96081 17.4909 3.74977 18.2985 2.43833 18.2985C1.65854 18.2985 1.04513 17.9935 0.597152 17.384C0.199369 16.8562 0 16.1887 0 15.3806C0 13.7322 0.721937 11.9108 2.16485 9.91557C3.70817 7.80536 5.27588 6.75073 6.86844 6.75073C7.54878 6.75073 8.12107 7.04764 8.58579 7.64099C8.71822 7.14645 8.98405 6.89895 9.38231 6.89895C10.1454 6.89895 10.5269 7.03149 10.5269 7.29467C10.5269 7.34455 10.3361 7.93743 9.9546 9.07472C8.47726 13.4766 7.73955 16.0073 7.73955 16.6666C7.73955 16.9797 7.85525 17.1365 8.08808 17.1365C8.55185 17.1365 9.08732 16.716 9.69308 15.8752C10.2988 15.0343 10.6096 14.6139 10.6263 14.6139C10.8587 14.6139 10.9749 14.7217 10.9749 14.9355Z" fill="#8491A0"/>
<path d="M23.6168 5.04432C23.6168 3.65999 23.2807 2.66664 22.6095 2.06522C21.9368 1.46332 20.9203 1.17068 19.5606 1.18731C18.4987 1.18731 17.9676 1.41819 17.9676 1.87947V8.9265C18.5814 9.02579 19.029 9.07472 19.3115 9.07472C22.1983 9.05904 23.6331 7.7151 23.6168 5.04432ZM26.5538 5.04432C26.5538 8.3417 24.3048 9.98968 19.8092 9.98968C19.2278 9.98968 18.6144 9.95738 17.9676 9.89135V14.2928C17.9676 15.8424 18.2415 16.7327 18.7889 16.9636C18.8219 16.9797 19.1786 17.0871 19.8594 17.2852C20.2572 17.384 20.4475 17.5161 20.4317 17.6804C20.415 17.8785 20.2821 17.9773 20.033 17.9773H13.264C13.0154 17.9773 12.8824 17.8785 12.8662 17.6804C12.8495 17.5161 13.0402 17.384 13.4385 17.2852C14.1183 17.0871 14.475 16.9797 14.5085 16.9636C15.0559 16.7327 15.3294 15.8424 15.3294 14.2928V4.15453C15.3294 2.60489 15.0559 1.71462 14.5085 1.48374C14.475 1.46759 14.1183 1.35975 13.4385 1.16213C13.0402 1.06332 12.8495 0.93173 12.8662 0.766409C12.8824 0.568309 13.0154 0.469971 13.264 0.469971H20.556C22.2815 0.469971 23.6747 0.824366 24.7366 1.53315C25.9476 2.32412 26.5538 3.49467 26.5538 5.04432Z" fill="#8491A0"/>
<path d="M32.7159 17.6802C32.6991 17.8783 32.5662 17.9771 32.3176 17.9771H26.9423C26.6932 17.9771 26.5603 17.8783 26.544 17.6802C26.5273 17.5486 26.7181 17.4327 27.1163 17.3339C27.6303 17.2189 27.9874 17.0954 28.1863 16.9633C28.3852 16.8317 28.4933 16.4688 28.51 15.875V14.2926V2.89299C28.51 2.44834 28.4684 2.15522 28.3852 2.01508C28.3025 1.87541 28.0534 1.8051 27.6394 1.8051C27.0083 1.8051 26.6932 1.70582 26.6932 1.50819C26.6932 1.29442 26.8921 1.14572 27.2904 1.06306C28.2528 0.864968 29.1985 0.593234 30.1279 0.247391C30.2436 0.214137 30.3354 0.19751 30.4014 0.19751C30.5668 0.19751 30.6667 0.292522 30.7002 0.48207C30.7332 0.671619 30.7499 1.07162 30.7499 1.68159V14.2926C30.7499 15.9581 30.8575 16.8479 31.0731 16.9633C31.1893 17.0294 31.5464 17.1363 32.1436 17.285C32.5418 17.4004 32.7321 17.532 32.7159 17.6802Z" fill="#8491A0"/>
<path d="M40.056 14.6746V11.9187C38.8282 12.1487 37.9074 12.4275 37.294 12.7553C36.2986 13.3135 35.8009 14.0841 35.8009 15.0684C35.8009 15.5933 35.9539 16.0157 36.2608 16.3354C36.5678 16.6556 36.9866 16.8152 37.5177 16.8152C38.1809 16.8152 38.7704 16.61 39.2848 16.2C39.7988 15.79 40.056 15.2812 40.056 14.6746ZM44.6099 16.2708C44.1624 17.5406 43.3822 18.1748 42.2711 18.1748C41.0767 18.1748 40.3462 17.5739 40.0813 16.3696C38.8196 17.5739 37.5426 18.1748 36.2484 18.1748C35.4189 18.1748 34.7634 17.9368 34.2824 17.4598C33.801 16.9829 33.5605 16.333 33.5605 15.5107C33.5605 14.0142 34.3733 12.8959 35.9998 12.1553C36.9287 11.7444 38.2808 11.4233 40.056 11.1933C40.1057 9.63084 39.9814 8.61944 39.6826 8.15864C39.434 7.74771 38.8704 7.55056 37.9907 7.56671C37.2601 7.58334 36.7791 7.81422 36.5467 8.25935C36.431 8.67122 36.3144 9.08358 36.1987 9.49545C36.0328 9.94058 35.6762 10.1634 35.1283 10.1634C34.3982 10.1634 34.0338 9.85032 34.0338 9.22324C34.0338 8.41612 34.5396 7.78951 35.5513 7.34438C36.3311 7.01469 37.2108 6.84985 38.1895 6.84985C40.8774 6.866 42.2213 7.78714 42.2213 9.61279V15.7054C42.2213 16.5938 42.4699 17.0294 42.9676 17.0128C43.2995 17.0128 43.5772 16.8361 43.8015 16.4812C44.0257 16.1273 44.1873 15.9496 44.2872 15.9496C44.3862 15.9496 44.4737 15.9867 44.5483 16.0608C44.6228 16.1349 44.6434 16.2057 44.6099 16.2708Z" fill="#8491A0"/>
<path d="M54.3764 16.2797C53.2978 17.6754 51.9706 18.3728 50.3948 18.3728C48.752 18.3728 47.4415 17.8531 46.4624 16.8117C45.4832 15.7714 44.9941 14.4165 44.9941 12.7476C44.9941 11.0792 45.5377 9.6749 46.6244 8.53476C47.7107 7.39556 49.0919 6.83309 50.7677 6.84972C51.5307 6.84972 52.2775 7.01457 53.0081 7.34426C53.9203 7.75661 54.3764 8.30008 54.3764 8.97656C54.3764 9.61884 54.0446 9.94046 53.381 9.94046C52.9828 9.94046 52.672 9.75138 52.4478 9.37181C52.2235 8.99271 52.0127 8.61361 51.8133 8.23404C51.515 7.83879 51.0995 7.64069 50.5688 7.64069C49.4735 7.64069 48.6444 8.16991 48.0803 9.22692C47.649 10.0706 47.4334 11.0953 47.4334 12.3015C47.4334 13.6236 47.6983 14.74 48.2299 15.6483C48.8601 16.7723 49.7809 17.3343 50.9919 17.3343C51.6885 17.3343 52.3526 17.0839 52.9828 16.5842C53.1152 16.4673 53.5216 16.0417 54.2024 15.3082C54.2856 15.2246 54.3602 15.1828 54.4261 15.1828C54.5758 15.1828 54.6504 15.3077 54.6504 15.5566C54.6504 15.806 54.5591 16.0469 54.3764 16.2797Z" fill="#8491A0"/>
<path d="M63.3542 10.5554C63.2543 8.59627 62.4664 7.62478 60.99 7.64093C59.3975 7.65755 58.4432 8.79485 58.1276 11.0537H61.2386C62.6658 11.0537 63.3705 10.8875 63.3542 10.5554ZM65.7185 11.5972C65.7185 11.7792 65.6271 11.886 65.4445 11.9188H64.8971H58.0286C58.0119 12.1497 58.0038 12.3231 58.0038 12.4381C58.0038 13.7906 58.2524 14.886 58.7501 15.7274C59.3802 16.7654 60.3259 17.2851 61.5876 17.2851C62.4167 17.2851 63.1219 17.1036 63.7028 16.7411C64.0016 16.543 64.4405 16.1392 65.0214 15.5293C65.0874 15.4637 65.162 15.4305 65.2451 15.4305C65.4608 15.4305 65.5693 15.5293 65.5693 15.7274C65.5693 15.7929 65.544 15.8675 65.4947 15.9492C64.5485 17.5487 63.0554 18.3397 61.0149 18.3236C59.3884 18.3065 58.0784 17.7839 57.083 16.7535C56.0875 15.7231 55.5898 14.4081 55.5898 12.8091C55.5898 11.1606 56.0789 9.76777 57.0576 8.63C58.1032 7.42715 59.4386 6.83333 61.0646 6.84995C62.3086 6.84995 63.3456 7.2205 64.1756 7.96254C65.1873 8.85233 65.7017 10.0642 65.7185 11.5972Z" fill="#8491A0"/>
<path d="M80.302 1.6076C80.302 1.85463 80.215 2.07316 80.0405 2.26271C79.866 2.45226 79.6547 2.54727 79.4056 2.54727C79.0078 2.54727 78.6923 2.25891 78.4604 1.68171C78.228 1.10451 77.9211 0.816151 77.54 0.816151C76.6771 0.816151 75.9962 1.32066 75.4985 2.33017C75.3164 2.67791 75.0262 3.54679 74.6274 4.93682L73.9562 7.27031H76.4194C76.635 7.27031 76.7435 7.37245 76.7435 7.57577C76.7435 7.91591 76.5604 8.08599 76.1951 8.08599H73.7573L71.2683 17.4057C70.6869 19.5753 70.1151 21.1781 69.5514 22.2138C68.522 24.0708 67.2364 25 65.6931 25C65.1127 25 64.5982 24.8352 64.1503 24.5055C63.7023 24.1753 63.4785 23.7387 63.4785 23.1948C63.4785 22.4532 63.8146 22.0822 64.4854 22.0822C64.9444 22.0822 65.2312 22.2632 65.3455 22.6261C65.378 22.7577 65.3948 23.1121 65.3948 23.6893C65.3948 24.0684 65.5697 24.2584 65.9192 24.2584C66.6192 24.2584 67.2355 23.6323 67.7681 22.3815C68.0019 21.8385 68.2935 20.9083 68.6425 19.5914L71.6914 8.08599H69.1029C68.9538 8.08599 68.8787 7.9924 68.8787 7.8057C68.8787 7.44846 69.0365 7.27031 69.3525 7.27031H71.841C72.5037 5.14347 73.151 3.58575 73.7812 2.59668C74.8598 0.865082 76.1951 0 77.7882 0C78.3691 0 78.9079 0.123991 79.4056 0.370545C80.0032 0.667458 80.302 1.07981 80.302 1.6076Z" fill="#8491A0"/>
<path d="M82.694 9.52013C82.694 8.16811 82.2375 7.4921 81.3252 7.4921C80.2801 7.4921 79.3172 8.58901 78.4389 10.7809C77.6916 12.6441 77.3182 14.2018 77.3182 15.4545C77.3182 16.8892 77.8073 17.6061 78.787 17.6061C79.8154 17.6061 80.7611 16.4935 81.624 14.2678C82.3374 12.3885 82.694 10.8061 82.694 9.52013ZM84.5104 10.8308C84.5104 12.5453 83.9969 14.169 82.9675 15.7021C81.8062 17.4327 80.4044 18.2987 78.7616 18.2987C77.6835 18.2987 76.854 17.8697 76.2731 17.0123C75.7419 16.2707 75.4766 15.3481 75.4766 14.2427C75.4766 12.5453 75.9996 10.9135 77.0448 9.3472C78.2228 7.59946 79.6246 6.72583 81.2502 6.72583C82.3288 6.72583 83.1583 7.15481 83.7392 8.01134C84.2536 8.77048 84.5104 9.70967 84.5104 10.8308Z" fill="#8491A0"/>
<path d="M94.5872 8.08586C94.5872 8.38277 94.5002 8.65449 94.3257 8.90247C94.1521 9.14903 93.9231 9.27303 93.641 9.27303C93.3594 9.27303 93.1433 9.1001 92.9942 8.75378C92.8445 8.40794 92.6456 8.23455 92.3975 8.23455C91.4843 8.23455 89.9912 11.4821 87.9181 17.9771H85.9766C86.4743 16.312 86.972 14.6388 87.4697 12.9576C88.2495 10.3035 88.6391 8.81126 88.6391 8.48157C88.6391 8.20176 88.5148 8.06115 88.2662 8.06115C87.8182 8.06115 87.3951 8.33335 86.9963 8.8773C86.8639 9.04262 86.5986 9.49535 86.2008 10.2374C86.1009 10.435 85.9598 10.5339 85.7777 10.5339C85.5286 10.5339 85.4043 10.435 85.4043 10.2374L85.4286 10.1381C85.6443 9.31435 86.0674 8.56472 86.6985 7.88823C87.4109 7.14619 88.1663 6.77563 88.9628 6.77563C89.8415 6.77563 90.2814 7.27873 90.2814 8.28396C90.2814 8.59702 90.2235 8.98514 90.1078 9.44595C89.9912 9.84168 89.8836 10.2293 89.7837 10.6084C91.0444 8.05354 92.2311 6.77563 93.3422 6.77563C93.7075 6.77563 94.0063 6.90342 94.2387 7.15901C94.4705 7.41459 94.5872 7.72338 94.5872 8.08586Z" fill="#8491A0"/>
<path d="M117.308 17.6804C117.292 17.8785 117.159 17.9773 116.91 17.9773H110.34C110.091 17.9773 109.958 17.8785 109.942 17.6804C109.925 17.516 110.116 17.384 110.514 17.2852C111.194 17.0871 111.551 16.9797 111.584 16.9635C112.132 16.7327 112.405 15.8429 112.405 14.2928V2.62152L105.984 17.6557C105.836 18.002 105.719 18.1749 105.636 18.1749C105.553 18.1749 105.413 17.9526 105.213 17.5075L99.6881 4.8961C99.3893 4.22057 99.0905 3.65192 98.7917 3.18969L98.9413 14.2928C98.958 15.0842 98.9915 15.6201 99.0412 15.9004C99.1569 16.4438 99.3979 16.7992 99.7632 16.9635C99.7957 16.9797 100.153 17.0871 100.833 17.2852C101.231 17.384 101.422 17.516 101.406 17.6804C101.389 17.8785 101.257 17.9773 101.007 17.9773H95.6816C95.433 17.9773 95.2996 17.8785 95.2838 17.6804C95.2666 17.516 95.4574 17.384 95.8561 17.2852C96.536 17.0871 96.8926 16.9797 96.9261 16.9635C97.2904 16.7992 97.5314 16.4277 97.6471 15.8505C97.7135 15.5707 97.747 15.0514 97.747 14.2928L97.8713 2.12651C97.606 1.9132 97.2158 1.698 96.7019 1.48375C96.3371 1.38494 95.9804 1.27805 95.6319 1.16214C95.2331 1.06332 95.0428 0.931728 95.0596 0.766407C95.0754 0.568307 95.2087 0.469971 95.4574 0.469971H98.4436C99.5714 0.487072 100.219 0.540279 100.385 0.63054C100.55 0.721752 100.8 1.15406 101.132 1.92888L106.433 14.2681L112.157 0.840992C112.256 0.593487 112.48 0.469971 112.828 0.469971H116.91C117.159 0.469971 117.292 0.568307 117.308 0.766407C117.324 0.931728 117.134 1.06332 116.736 1.16214C116.055 1.36024 115.699 1.4676 115.666 1.48375C115.118 1.7151 114.844 2.60537 114.844 4.15453V14.2928C114.844 15.8429 115.118 16.7327 115.666 16.9635C115.699 16.9797 116.055 17.0871 116.736 17.2852C117.134 17.384 117.324 17.516 117.308 17.6804Z" fill="#8491A0"/>
<path d="M126.814 12.6235C126.814 11.252 126.589 10.1285 126.141 9.252C125.561 8.11234 124.656 7.54226 123.429 7.54226C122.201 7.54226 121.297 8.12896 120.717 9.30236C120.269 10.1784 120.045 11.2933 120.045 12.6487C120.045 13.9703 120.269 15.0696 120.717 15.9451C121.314 17.0691 122.218 17.6311 123.429 17.6311C124.656 17.6311 125.561 17.0691 126.141 15.9451C126.589 15.0696 126.814 13.9622 126.814 12.6235ZM129.202 12.4748C129.202 14.1598 128.655 15.5641 127.56 16.6881C126.465 17.8116 125.071 18.3731 123.379 18.3731C121.687 18.3731 120.318 17.8444 119.274 16.7869C118.227 15.7294 117.705 14.3499 117.705 12.6487C117.705 10.9636 118.253 9.57552 119.348 8.48478C120.442 7.39452 121.837 6.8501 123.529 6.8501C125.137 6.8501 126.486 7.38692 127.573 8.46055C128.659 9.53419 129.202 10.8724 129.202 12.4748Z" fill="#8491A0"/>
<path d="M150.681 17.6811C150.664 17.8788 150.531 17.9771 150.282 17.9771H144.907C144.658 17.9771 144.525 17.8788 144.509 17.6811C144.493 17.55 144.683 17.4346 145.081 17.3353C145.595 17.2203 145.956 17.0935 146.164 16.9538C146.371 16.8137 146.475 15.9296 146.475 14.3016V11.0954C146.475 10.0916 146.351 9.36 146.102 8.89967C145.77 8.27497 145.131 7.96238 144.185 7.96238C143.389 7.96238 142.708 8.20514 142.145 8.69017C141.58 9.17568 141.299 9.77141 141.299 10.4788V14.3016C141.315 15.2883 141.323 15.8308 141.323 15.9296C141.357 16.522 141.456 16.8669 141.622 16.9657C141.787 17.065 142.145 17.1795 142.692 17.3111C143.09 17.4099 143.28 17.5329 143.265 17.6811C143.248 17.8788 143.115 17.9771 142.867 17.9771H137.491C137.242 17.9771 137.109 17.8788 137.093 17.6811C137.076 17.55 137.267 17.4346 137.665 17.3353C138.179 17.2203 138.539 17.0935 138.748 16.9538C138.955 16.8137 139.059 15.9296 139.059 14.3016V11.0954C139.059 10.0916 138.935 9.36 138.685 8.89967C138.354 8.27497 137.715 7.96238 136.769 7.96238C135.972 7.96238 135.293 8.20514 134.729 8.69017C134.165 9.17568 133.883 9.77141 133.883 10.4788V14.3016C133.883 15.9629 133.99 16.8507 134.206 16.9657C134.322 17.0317 134.678 17.1386 135.276 17.2864C135.674 17.4013 135.865 17.5329 135.849 17.6811C135.831 17.8788 135.699 17.9771 135.451 17.9771H130.075C129.826 17.9771 129.693 17.8783 129.677 17.6802C129.66 17.5486 129.859 17.4417 130.273 17.3586C130.788 17.2598 131.145 17.1239 131.344 16.951C131.543 16.7781 131.643 15.8916 131.643 14.2925V9.56951C131.643 9.12438 131.602 8.83174 131.518 8.6916C131.435 8.55193 131.186 8.48162 130.771 8.48162C130.141 8.48162 129.826 8.38281 129.826 8.18518C129.826 7.97093 130.024 7.82224 130.422 7.73958C131.383 7.54195 132.328 7.27022 133.255 6.92342C133.405 6.89064 133.504 6.87402 133.554 6.87402C133.703 6.87402 133.794 6.98186 133.828 7.19611C133.843 7.34433 133.86 7.76476 133.877 8.45692C134.241 7.98661 134.775 7.60513 135.48 7.31297C136.184 7.02081 136.909 6.87402 137.654 6.87402C139.378 6.87402 140.455 7.50917 140.886 8.77853C141.88 7.50917 143.271 6.87402 145.061 6.87402C146.42 6.87402 147.356 7.24409 147.87 7.98471C148.433 8.79088 148.714 10.0574 148.714 11.7842V13.0184V14.3011C148.714 15.2384 148.723 15.7814 148.739 15.9291C148.773 16.522 148.872 16.8669 149.038 16.9657C149.204 17.0645 149.561 17.1795 150.109 17.3111C150.506 17.4099 150.697 17.5329 150.681 17.6811Z" fill="#8491A0"/>
<path d="M152.906 16.5649C152.858 16.5464 152.791 16.5369 152.703 16.5369H152.618V16.9222H152.755C152.836 16.9222 152.899 16.9056 152.945 16.8728C152.991 16.8405 153.014 16.7882 153.014 16.7155C153.014 16.6433 152.978 16.593 152.906 16.5649ZM152.269 17.63V16.3032C152.352 16.3032 152.476 16.3037 152.64 16.3041C152.806 16.3046 152.897 16.3056 152.916 16.3065C153.021 16.3141 153.109 16.3369 153.179 16.3749C153.298 16.4395 153.357 16.5455 153.357 16.6913C153.357 16.8029 153.326 16.8832 153.263 16.9326C153.201 16.9825 153.123 17.012 153.032 17.022C153.116 17.0391 153.179 17.0647 153.221 17.0984C153.3 17.1616 153.339 17.2609 153.339 17.3963V17.5146C153.339 17.5274 153.34 17.5407 153.342 17.5535C153.344 17.5664 153.347 17.5797 153.352 17.5925L153.364 17.63H153.03C153.019 17.5873 153.012 17.5265 153.008 17.4462C153.005 17.3664 152.997 17.3122 152.986 17.2842C152.969 17.2376 152.936 17.2053 152.888 17.1868C152.862 17.1759 152.822 17.1687 152.769 17.1654L152.692 17.1607H152.618V17.63H152.269ZM152.089 16.2709C151.897 16.4657 151.801 16.6965 151.801 16.964C151.801 17.2414 151.899 17.4766 152.094 17.6704C152.288 17.8642 152.522 17.9611 152.797 17.9611C153.07 17.9611 153.304 17.8638 153.498 17.669C153.692 17.4728 153.789 17.2381 153.789 16.964C153.789 16.6975 153.692 16.4666 153.499 16.2709C153.304 16.0718 153.07 15.9721 152.797 15.9721C152.52 15.9721 152.284 16.0718 152.089 16.2709ZM153.64 17.8229C153.406 18.0481 153.125 18.1607 152.797 18.1607C152.458 18.1607 152.173 18.0457 151.94 17.8148C151.708 17.5844 151.592 17.3008 151.592 16.964C151.592 16.6144 151.718 16.3236 151.968 16.0923C152.203 15.8756 152.48 15.7673 152.797 15.7673C153.129 15.7673 153.413 15.8842 153.648 16.1184C153.883 16.3521 154.001 16.6343 154.001 16.964C154.001 17.3041 153.881 17.5901 153.64 17.8229Z" fill="#8491A0"/>
</svg>
